<svg width="161" height="28" viewBox="0 0 161 28" fill="none" xmlns="http://www.w3.org/2000/svg">
<path d="M0.62 0.503998H18.476V5.544H12.032V27H6.812V5.544H0.62V0.503998ZM38.9797 13.788C38.9797 11.964 39.3277 10.236 40.0237 8.604C40.7197 6.972 41.6797 5.532 42.9037 4.284C44.1517 3.012 45.5917 2.016 47.2237 1.296C48.8557 0.575999 50.6077 0.215999 52.4797 0.215999C54.3277 0.215999 56.0677 0.575999 57.6997 1.296C59.3317 2.016 60.7717 3.012 62.0197 4.284C63.2917 5.532 64.2757 6.972 64.9717 8.604C65.6917 10.236 66.0517 11.964 66.0517 13.788C66.0517 15.66 65.6917 17.412 64.9717 19.044C64.2757 20.676 63.2917 22.116 62.0197 23.364C60.7717 24.588 59.3317 25.548 57.6997 26.244C56.0677 26.94 54.3277 27.288 52.4797 27.288C50.6077 27.288 48.8557 26.94 47.2237 26.244C45.5917 25.548 44.1517 24.588 42.9037 23.364C41.6797 22.116 40.7197 20.676 40.0237 19.044C39.3277 17.412 38.9797 15.66 38.9797 13.788ZM44.3797 13.788C44.3797 14.964 44.5837 16.068 44.9917 17.1C45.4237 18.108 46.0117 19.008 46.7557 19.8C47.5237 20.568 48.3997 21.168 49.3837 21.6C50.3917 22.032 51.4837 22.248 52.6597 22.248C53.7877 22.248 54.8317 22.032 55.7917 21.6C56.7757 21.168 57.6277 20.568 58.3477 19.8C59.0677 19.008 59.6317 18.108 60.0397 17.1C60.4477 16.068 60.6517 14.964 60.6517 13.788C60.6517 12.588 60.4357 11.472 60.0037 10.44C59.5957 9.408 59.0197 8.508 58.2757 7.74C57.5557 6.948 56.7037 6.336 55.7197 5.904C54.7357 5.472 53.6677 5.256 52.5157 5.256C51.3637 5.256 50.2957 5.472 49.3117 5.904C48.3277 6.336 47.4637 6.948 46.7197 7.74C45.9757 8.508 45.3997 9.408 44.9917 10.44C44.5837 11.472 44.3797 12.588 44.3797 13.788ZM89.2559 27V0.503998H97.1759C99.8399 0.503998 102.108 0.899998 103.98 1.692C105.852 2.484 107.352 3.54 108.48 4.86C109.632 6.18 110.472 7.656 111 9.288C111.528 10.92 111.792 12.564 111.792 14.22C111.792 16.188 111.432 17.964 110.712 19.548C110.016 21.108 109.056 22.452 107.832 23.58C106.608 24.684 105.192 25.536 103.584 26.136C101.976 26.712 100.272 27 98.4719 27H89.2559ZM94.4759 21.96H97.5719C98.8919 21.96 100.092 21.792 101.172 21.456C102.252 21.096 103.176 20.58 103.944 19.908C104.736 19.236 105.336 18.396 105.744 17.388C106.176 16.356 106.392 15.18 106.392 13.86C106.392 12.132 106.104 10.728 105.528 9.648C104.976 8.544 104.28 7.692 103.44 7.092C102.624 6.492 101.784 6.084 100.92 5.868C100.056 5.628 99.3239 5.508 98.7239 5.508H94.4759V21.96ZM133.409 13.788C133.409 11.964 133.757 10.236 134.453 8.604C135.149 6.972 136.109 5.532 137.333 4.284C138.581 3.012 140.021 2.016 141.653 1.296C143.285 0.575999 145.037 0.215999 146.909 0.215999C148.757 0.215999 150.497 0.575999 152.129 1.296C153.761 2.016 155.201 3.012 156.449 4.284C157.721 5.532 158.705 6.972 159.401 8.604C160.121 10.236 160.481 11.964 160.481 13.788C160.481 15.66 160.121 17.412 159.401 19.044C158.705 20.676 157.721 22.116 156.449 23.364C155.201 24.588 153.761 25.548 152.129 26.244C150.497 26.94 148.757 27.288 146.909 27.288C145.037 27.288 143.285 26.94 141.653 26.244C140.021 25.548 138.581 24.588 137.333 23.364C136.109 22.116 135.149 20.676 134.453 19.044C133.757 17.412 133.409 15.66 133.409 13.788ZM138.809 13.788C138.809 14.964 139.013 16.068 139.421 17.1C139.853 18.108 140.441 19.008 141.185 19.8C141.953 20.568 142.829 21.168 143.813 21.6C144.821 22.032 145.913 22.248 147.089 22.248C148.217 22.248 149.261 22.032 150.221 21.6C151.205 21.168 152.057 20.568 152.777 19.8C153.497 19.008 154.061 18.108 154.469 17.1C154.877 16.068 155.081 14.964 155.081 13.788C155.081 12.588 154.865 11.472 154.433 10.44C154.025 9.408 153.449 8.508 152.705 7.74C151.985 6.948 151.133 6.336 150.149 5.904C149.165 5.472 148.097 5.256 146.945 5.256C145.793 5.256 144.725 5.472 143.741 5.904C142.757 6.336 141.893 6.948 141.149 7.74C140.405 8.508 139.829 9.408 139.421 10.44C139.013 11.472 138.809 12.588 138.809 13.788Z" fill="white"/>
</svg>
